<?xml version="1.0" encoding="utf-8"?>
<!-- Generator: Adobe Illustrator 30.0.0, SVG Export Plug-In . SVG Version: 9.03 Build 0)  -->
<svg version="1.1" id="Layer_1" xmlns="http://www.w3.org/2000/svg" xmlns:xlink="http://www.w3.org/1999/xlink" x="0px" y="0px"
	 viewBox="0 0 400 400" style="enable-background:new 0 0 400 400;" xml:space="preserve">
<style type="text/css">
	.st0{fill:#C90A0A;}
	.st1{fill:#C89430;}
</style>
<g>
	<path d="M61.41,217.95c0-0.27-0.01-0.65-0.03-1.14c-0.02-0.49-0.12-1.41-0.31-2.74s-0.45-2.6-0.77-3.8
		c-0.32-1.2-0.85-2.46-1.57-3.8c-0.72-1.33-1.56-2.42-2.51-3.25c-0.99-0.84-0.89-1.46,0.29-1.88c1.29-0.46,2.59-0.4,3.88,0.17
		c0.46,0.19,0.8,0.42,1.03,0.68v-28.14c0-2.97-0.11-5.9-0.31-8.79c-0.21-2.89-0.42-5.2-0.63-6.94c-0.21-1.73-0.38-3.29-0.51-4.68
		c-0.13-1.39-0.14-2.38-0.03-2.97c0.11-0.59,0.4-0.88,0.86-0.88c3.16,0,5.96-1.22,8.39-3.65c1.14-1.14,3.02-2.35,5.62-3.62
		c2.61-1.27,5.19-2.2,7.74-2.77c1.48-0.34,2.91-0.51,4.28-0.51h2.63h2.63c2.78,0,6.03,0.77,9.76,2.31c3.73,1.54,6.37,3.07,7.94,4.6
		l0.69,0.69c2.21,1.98,4.76,2.97,7.65,2.97c0.38,0,0.65,0.19,0.8,0.57c0.15,0.38,0.2,1.06,0.14,2.03c-0.06,0.97-0.15,2-0.29,3.08
		c-0.13,1.08-0.31,2.63-0.51,4.62c-0.21,2-0.37,3.93-0.49,5.79c-0.04,0.19-0.06,0.48-0.06,0.86c-0.15,1.45-0.43,2.85-0.83,4.22
		c-0.4,1.37-1.06,2.9-1.97,4.6c-0.91,1.69-2.29,3.18-4.14,4.45c-1.85,1.28-4.06,2.16-6.65,2.65c-1.52,0.34-3.24,0.51-5.14,0.51
		c-3.35,0-6.12-1.28-8.31-3.85c-2.19-2.57-2.94-5.55-2.26-8.93c0.3-1.33,0.57-2,0.8-2c0.19,0,0.44,0.34,0.74,1.03
		c0.27,0.61,0.85,1.12,1.74,1.54c0.89,0.42,1.9,0.63,3.03,0.63c1.12,0,2.23-0.2,3.31-0.6c1.08-0.4,1.99-1.24,2.71-2.51
		c0.72-1.27,1.08-2.86,1.08-4.77c0-0.76-0.1-1.66-0.29-2.68c0-0.04-0.01-0.1-0.03-0.2c-0.02-0.09-0.03-0.16-0.03-0.2
		c-0.15-0.69-0.29-1.18-0.4-1.48c-0.04-0.27-0.13-0.57-0.29-0.91c-0.04-0.11-0.13-0.38-0.29-0.8c0-0.04-0.02-0.06-0.06-0.06
		c-1.98-4.83-5.46-7.33-10.45-7.48h-1.08c-1.79,0.08-3.39,0.46-4.8,1.14c-1.41,0.69-2.56,1.55-3.45,2.6
		c-0.89,1.05-1.64,2.26-2.23,3.65c-0.59,1.39-1,2.77-1.23,4.14c-0.23,1.37-0.34,2.78-0.34,4.22v13.64v0.06v39.16v13.3v1.37
		c0,1.87,0.22,3.66,0.66,5.4c0.44,1.73,1.1,3.4,2,5c0.89,1.6,2.2,2.88,3.91,3.85c1.71,0.97,3.71,1.46,5.99,1.46c0.3,0,0.56,0,0.77,0
		c0.21,0,0.78-0.09,1.71-0.26c0.93-0.17,1.77-0.41,2.51-0.71s1.61-0.82,2.6-1.54c0.99-0.72,1.82-1.57,2.48-2.54
		c0.67-0.97,1.24-2.26,1.71-3.88c0.48-1.62,0.71-3.43,0.71-5.45c0-2.55-0.14-4.78-0.43-6.68c-0.29-1.9-0.63-3.31-1.03-4.22
		c-0.4-0.91-0.8-1.66-1.2-2.23c-0.4-0.57-0.7-0.98-0.91-1.23c-0.21-0.25-0.28-0.47-0.2-0.66c0.08-0.19,0.29-0.29,0.63-0.31
		c0.34-0.02,0.83,0.08,1.46,0.31s1.32,0.58,2.08,1.06c0.76,0.48,1.63,1.19,2.6,2.14c0.97,0.95,1.91,2.08,2.83,3.37
		c1.41,1.98,2.79,3.39,4.14,4.22c1.35,0.84,2.44,1.19,3.25,1.06c0.82-0.13,1.54-0.26,2.17-0.37c0.63-0.11,1.08,0.06,1.34,0.51
		c0.27,0.46,0.4,1.5,0.4,3.14c0,5.21-1.4,10.07-4.2,14.56c-2.8,4.49-5.74,7.31-8.82,8.45c-3.62,1.33-9.15,2-16.61,2h-2.63
		c-2.78,0-6.03-0.78-9.76-2.34c-3.73-1.56-6.36-3.1-7.88-4.62c-2.44-2.44-5.23-3.65-8.39-3.65c-0.46,0-0.74-0.29-0.86-0.88
		s-0.1-1.6,0.03-3.03c0.13-1.43,0.3-3.02,0.51-4.77c0.21-1.75,0.42-4.1,0.63-7.05c0.21-2.95,0.31-5.93,0.31-8.93v-0.06v-2.46V217.95
		z M67.92,179.3c-0.19,4.42-0.32,11.04-0.4,19.87c0,7.12,0.13,13.76,0.4,19.92c0.34,8.33,0.82,14.98,1.43,19.92
		c0.65-5.94,1.1-12.58,1.37-19.92c0.27-5.14,0.4-11.78,0.4-19.92c0-7.08-0.13-13.7-0.4-19.87c-0.27-7.42-0.72-14.06-1.37-19.92
		C68.74,164.85,68.26,171.5,67.92,179.3z M105.49,171.65c-0.65,1.1-2.02,2.57-4.11,4.4c2.55-0.08,4.66-0.95,6.34-2.63
		c1.64-1.64,2.68-3.79,3.14-6.45c0.3-2.21,0.15-4.49-0.46-6.85c-0.61-2.36-1.58-4.36-2.91-5.99l0.11,6.39
		c0,2.47-0.11,4.43-0.34,5.88C106.87,168.41,106.28,170.16,105.49,171.65z M106.17,242.15c-0.04,0.27-0.11,0.57-0.2,0.91
		c-0.1,0.34-0.21,0.72-0.34,1.14c-0.13,0.42-0.24,0.8-0.31,1.14c1.26-0.11,2.38-0.72,3.37-1.83c0.88-1.07,1.41-2.25,1.6-3.54
		c0.23-1.26,0.17-2.49-0.17-3.71c-0.5-1.45-1.14-2.51-1.94-3.2c-0.38,1.14-0.86,3.24-1.43,6.28L106.17,242.15z"/>
	<path d="M156.1,219.02h0.05v-25.28c-8.48-0.1-14.85,1.68-19.13,5.33v20c0,3.32,0.22,5.97,0.67,7.95c0.44,1.98,1.32,3.5,2.62,4.56
		c1.5,1.2,1.09,1.79-1.23,1.79c-0.24,0-0.56-0.02-0.97-0.05c-0.24,0-0.41,0-0.51,0c-0.96,0-1.94-0.17-2.95-0.51
		c-1.01-0.34-1.77-0.68-2.28-1.03l-0.82-0.46c-1.95,1.33-4.15,2-6.62,2h-0.05c-1.68-0.07-2.57-0.21-2.69-0.44
		c-0.12-0.22,0.16-0.74,0.85-1.56c0.65-0.99,1.19-2.32,1.62-4c0.43-1.67,0.64-3.18,0.64-4.51V168.5c0-2.29-0.08-4.55-0.23-6.77
		c-0.15-2.22-0.31-4-0.46-5.33c-0.15-1.33-0.29-2.54-0.41-3.62c-0.12-1.08-0.14-1.84-0.05-2.28c0.08-0.44,0.3-0.67,0.64-0.67
		c2.46,0,4.6-0.91,6.41-2.72c1.2-1.2,3.21-2.38,6.03-3.56c2.82-1.18,5.29-1.77,7.41-1.77h1.95h2c2.12,0,4.59,0.59,7.41,1.77
		c2.82,1.18,4.83,2.37,6.03,3.56c1.81,1.81,3.93,2.72,6.36,2.72c0.34,0,0.56,0.22,0.64,0.67c0.08,0.44,0.08,1.21-0.03,2.31
		c-0.1,1.09-0.24,2.31-0.41,3.64c-0.17,1.33-0.33,3.12-0.49,5.36c-0.15,2.24-0.23,4.5-0.23,6.79v0.05v54.1
		c0.03,1.4,0.26,2.94,0.67,4.62s0.96,2.97,1.64,3.9c0.68,0.82,0.96,1.34,0.82,1.56c-0.14,0.22-1.03,0.37-2.67,0.44h-0.05
		c-1.09,0-2.19-0.16-3.28-0.49c-1.09-0.32-1.92-0.66-2.46-1l-0.87-0.46c-1.85,1.3-3.88,1.95-6.1,1.95c-0.07,0-0.24,0-0.51,0
		c-2.05,0.1-3.08-0.1-3.08-0.62c0.03-0.27,0.34-0.65,0.92-1.13c1.3-1.06,2.16-2.57,2.59-4.54
		C155.88,225.03,156.1,222.37,156.1,219.02z M132.3,202.45c0.24-4.75,0.36-9.85,0.36-15.28c0-5.4-0.12-10.5-0.36-15.28
		c-0.24-5.64-0.65-10.73-1.23-15.28c-0.55,3.79-0.97,8.89-1.28,15.28c-0.24,4.79-0.36,9.88-0.36,15.28c0,5.44,0.12,10.53,0.36,15.28
		c0.24,5.78,0.67,10.87,1.28,15.28C131.65,213.22,132.06,208.13,132.3,202.45z M137.02,188.5c5.78-2.67,12.15-3.23,19.13-1.69
		v-18.92v-5.95c0-1.44-0.16-2.81-0.49-4.13c-0.33-1.32-0.84-2.59-1.54-3.82c-0.7-1.23-1.7-2.21-3-2.95c-1.3-0.73-2.82-1.1-4.56-1.1
		s-3.26,0.37-4.54,1.1c-1.28,0.74-2.27,1.72-2.97,2.95c-0.7,1.23-1.21,2.5-1.54,3.82c-0.33,1.32-0.49,2.69-0.49,4.13v10.36V188.5z
		 M161.07,171.89c-0.21,3.42-0.34,8.51-0.41,15.28c0.07,6.8,0.19,11.9,0.36,15.28c0.31,5.95,0.73,11.04,1.28,15.28
		c0.55-4.24,0.97-9.33,1.28-15.28c0.17-3.38,0.29-8.48,0.36-15.28c-0.07-6.77-0.19-11.86-0.36-15.28
		c-0.31-5.91-0.74-11.01-1.28-15.28C161.72,161.15,161.31,166.25,161.07,171.89z"/>
	<path d="M201.28,142.66c-1.5-1.2-1.11-1.79,1.18-1.79c0.24,0,0.56,0.02,0.97,0.05c0.27,0,0.44,0,0.51,0c0.99,0,1.99,0.17,3,0.51
		c1.01,0.34,1.77,0.68,2.28,1.03l0.82,0.46c1.95-1.33,4.15-2,6.62-2h0.05c1.64,0.07,2.53,0.21,2.67,0.44
		c0.14,0.22-0.14,0.74-0.82,1.56c-0.69,0.96-1.24,2.29-1.67,4c-0.43,1.71-0.64,3.23-0.64,4.56v3.69v51.13
		c0,2.26,0.08,4.49,0.23,6.69c0.15,2.21,0.32,3.96,0.49,5.26c0.17,1.3,0.31,2.48,0.41,3.54c0.1,1.06,0.11,1.81,0.03,2.26
		c-0.09,0.45-0.3,0.67-0.64,0.67c-2.39,0-4.53,0.92-6.41,2.77c-0.89,0.89-2.32,1.81-4.28,2.77c-1.97,0.96-3.92,1.66-5.87,2.1
		c-1.2,0.27-2.29,0.41-3.28,0.41h-1.95h-2c-2.15,0-4.63-0.58-7.44-1.74c-2.8-1.16-4.8-2.34-6-3.54c-0.07-0.07-0.16-0.15-0.28-0.26
		c-0.12-0.1-0.21-0.19-0.28-0.26c-1.68-1.5-3.61-2.26-5.79-2.26c-0.31,0-0.51-0.15-0.62-0.44s-0.14-0.79-0.1-1.51
		c0.03-0.72,0.1-1.5,0.21-2.33c0.1-0.84,0.23-2.01,0.38-3.51c0.15-1.5,0.28-2.97,0.38-4.41c0-0.07,0.01-0.18,0.03-0.33
		c0.02-0.15,0.03-0.26,0.03-0.33c0.1-1.09,0.31-2.17,0.62-3.23c0.31-1.06,0.8-2.23,1.49-3.51c0.68-1.28,1.73-2.41,3.15-3.38
		c1.42-0.98,3.1-1.65,5.05-2.03c1.37-0.24,2.68-0.36,3.95-0.36c2.5,0,4.58,0.98,6.26,2.95c1.67,1.97,2.26,4.23,1.74,6.79
		c-0.24,0.96-0.44,1.45-0.62,1.49c-0.1,0.04-0.22-0.07-0.36-0.31l-0.21-0.46c-0.21-0.44-0.65-0.83-1.33-1.15
		c-0.68-0.33-1.45-0.49-2.31-0.49c-0.85,0-1.69,0.15-2.51,0.46c-0.82,0.31-1.5,0.94-2.05,1.9c-0.55,0.96-0.82,2.17-0.82,3.64
		c0,0.44,0.07,1.11,0.21,2c0.03,0.07,0.05,0.19,0.05,0.36c0.14,0.48,0.24,0.85,0.31,1.13c0,0.07,0.03,0.17,0.08,0.31
		c0.05,0.14,0.09,0.26,0.13,0.36c0,0.07,0.03,0.15,0.08,0.26s0.09,0.21,0.13,0.31l0.05,0.1c1.54,3.66,4.21,5.54,8,5.64h0.82
		c2.19-0.07,4-0.76,5.44-2.08c1.44-1.32,2.41-2.81,2.92-4.49c0.51-1.67,0.77-3.47,0.77-5.38v-10.41v-48.67
		c-0.07-2.8-0.33-5.08-0.79-6.85C203.25,144.97,202.44,143.62,201.28,142.66z M179.38,218.81c0.85,1.3,2.07,2.15,3.64,2.56
		c-0.14-0.34-0.31-0.76-0.51-1.26c-0.21-0.5-0.38-0.94-0.51-1.33c-0.14-0.39-0.24-0.76-0.31-1.1c-0.27-1.2-0.41-2.31-0.41-3.33
		c0-0.68,0.03-1.43,0.1-2.23c0.07-0.8,0.16-1.74,0.28-2.82c0.12-1.08,0.21-1.96,0.28-2.64c-1.2,0.75-2.15,1.86-2.87,3.33
		c-0.68,1.37-1.03,2.82-1.03,4.36C178.05,216.03,178.49,217.51,179.38,218.81z M208.82,170.91c-0.24,4.79-0.36,9.88-0.36,15.28
		c0,6.26,0.12,11.35,0.36,15.28c0.24,5.68,0.65,10.77,1.23,15.28c0.62-4.41,1.04-9.5,1.28-15.28c0.24-4.75,0.36-9.85,0.36-15.28
		c0-5.4-0.12-10.5-0.36-15.28c-0.31-6.39-0.73-11.49-1.28-15.28C209.46,160.18,209.05,165.27,208.82,170.91z"/>
	<path d="M223.54,152.25c0-1.33-0.21-2.85-0.64-4.56c-0.43-1.71-0.98-3.04-1.67-4c-0.68-0.82-0.96-1.34-0.82-1.56
		c0.14-0.22,1.03-0.37,2.67-0.44c1.09,0,2.2,0.16,3.31,0.49c1.11,0.33,1.96,0.66,2.54,1l0.82,0.51c1.85-1.33,3.88-2,6.1-2
		c1.71,0,2.67,0.02,2.87,0.05c0.99,0.24,0.92,0.8-0.21,1.69c-1.2,0.99-2.03,2.4-2.49,4.23c-0.46,1.83-0.71,4.21-0.74,7.15v47.13
		v10.1v1.03c0,1.44,0.16,2.81,0.49,4.13s0.84,2.58,1.54,3.79c0.7,1.21,1.69,2.19,2.97,2.92c1.28,0.74,2.79,1.1,4.54,1.1h0.41
		c2.97-0.1,5.25-1.33,6.82-3.69s2.36-5.13,2.36-8.31v-10.36v-0.15v-49.03c-0.17-5.09-1.23-8.44-3.18-10.05
		c-1.5-1.2-1.13-1.79,1.13-1.79c0.24,0,0.58,0.02,1.03,0.05c0.24,0,0.41,0,0.51,0c0.96,0,1.95,0.16,2.97,0.49
		c1.03,0.33,1.79,0.66,2.31,1l0.82,0.51c1.95-1.33,4.15-2,6.62-2c1.67,0.07,2.58,0.21,2.72,0.44c0.14,0.22-0.14,0.74-0.82,1.56
		c-0.68,0.96-1.24,2.29-1.67,4c-0.43,1.71-0.64,3.23-0.64,4.56v3.69l-0.05,43.08c0.1,1.98,0.15,4.77,0.15,8.36
		c0,3.52,0.02,5.35,0.05,5.49c0.1,1.44,0.23,2.92,0.38,4.44c0.15,1.52,0.27,2.69,0.36,3.51s0.15,1.6,0.21,2.33
		c0.05,0.74,0.02,1.25-0.1,1.54c-0.12,0.29-0.32,0.44-0.59,0.44c-2.19,0-4.14,0.75-5.85,2.26l-0.51,0.51
		c-1.2,1.16-3.21,2.33-6.03,3.51c-2.82,1.18-5.29,1.77-7.41,1.77h-2h-1.95c-2.15,0-4.65-0.59-7.49-1.77s-4.84-2.37-6-3.56
		c-1.81-1.81-3.93-2.72-6.36-2.72c-0.34,0-0.56-0.22-0.64-0.67c-0.09-0.44-0.08-1.21,0.03-2.31c0.1-1.09,0.24-2.31,0.41-3.64
		c0.17-1.33,0.33-3.12,0.49-5.36c0.15-2.24,0.23-4.5,0.23-6.79v-0.05v-1.9v-48.46V152.25z M228.1,171.68
		c-0.17,3.42-0.29,8.51-0.36,15.28c0.07,6.8,0.19,11.9,0.36,15.28c0.31,5.95,0.74,11.04,1.28,15.28c0.55-4.24,0.97-9.33,1.28-15.28
		c0.17-3.38,0.29-8.48,0.36-15.28c-0.07-6.77-0.19-11.86-0.36-15.28c-0.31-5.91-0.74-11.01-1.28-15.28
		C228.83,160.68,228.41,165.77,228.1,171.68z M259.43,171.68c-0.17,3.42-0.29,8.51-0.36,15.28c0.07,6.8,0.19,11.9,0.36,15.28
		c0.31,5.95,0.74,11.04,1.28,15.28c0.55-4.24,0.97-9.33,1.28-15.28c0.17-3.38,0.29-8.48,0.36-15.28
		c-0.07-6.77-0.19-11.86-0.36-15.28c-0.31-5.91-0.74-11.01-1.28-15.28C260.17,160.68,259.74,165.77,259.43,171.68z"/>
	<path d="M307.84,141.94h0.05c1.09,0,2.19,0.17,3.28,0.51c1.09,0.34,1.92,0.68,2.46,1.03l0.87,0.46c1.85-1.33,3.86-2,6.05-2
		c1.74,0,2.72,0.02,2.92,0.05c0.96,0.24,0.89,0.8-0.21,1.69c-1.3,1.06-2.17,2.58-2.62,4.56c-0.45,1.98-0.67,4.63-0.67,7.95v62.87
		c0,3.32,0.22,5.97,0.67,7.95c0.44,1.98,1.32,3.5,2.62,4.56c1.47,1.2,1.06,1.79-1.23,1.79c-0.24,0-0.56-0.02-0.97-0.05
		c-0.24,0-0.41,0-0.51,0c-0.96,0-1.94-0.16-2.95-0.49c-1.01-0.32-1.79-0.64-2.33-0.95l-0.77-0.51c-1.95,1.3-4.15,1.95-6.62,1.95
		h-0.05c-1.68-0.07-2.57-0.21-2.69-0.44c-0.12-0.22,0.16-0.74,0.85-1.56c0.65-0.96,1.19-2.28,1.62-3.97
		c0.43-1.69,0.64-3.21,0.64-4.54v-33.28c-2.39-8.89-7.44-16.96-15.13-24.21l-6.82-6.36v63.85c0,1.33,0.21,2.85,0.64,4.54
		c0.43,1.69,0.96,3.02,1.62,3.97c0.68,0.82,0.96,1.34,0.82,1.56c-0.14,0.22-1.03,0.37-2.67,0.44h-0.05c-1.09,0-2.19-0.16-3.28-0.49
		c-1.09-0.32-1.92-0.64-2.46-0.95l-0.87-0.51c-1.85,1.3-3.88,1.95-6.1,1.95c-0.07,0-0.24,0-0.51,0c-2.05,0.1-3.08-0.1-3.08-0.62
		c0.03-0.27,0.34-0.65,0.92-1.13c1.3-1.06,2.17-2.58,2.62-4.56c0.44-1.98,0.67-4.63,0.67-7.95V156.2c0-3.32-0.22-5.97-0.67-7.95
		c-0.45-1.98-1.32-3.5-2.62-4.56c-1.5-1.2-1.11-1.79,1.18-1.79c0.24,0,0.56,0.02,0.97,0.05c0.27,0,0.44,0,0.51,0
		c1.85,0,3.76,0.58,5.74,1.74c0.07,0,0.17,0.01,0.31,0.03c0.14,0.02,0.26,0.03,0.36,0.03c1.98-1.2,4.09-1.79,6.31-1.79h0.05
		c0.1,0,0.19,0.02,0.26,0.05c0.99-0.1,1.83-0.07,2.51,0.1c0.41,0.1,0.44,0.33,0.1,0.69c-0.34,0.36-0.72,0.83-1.13,1.41
		c-0.41,0.58-0.29,1.4,0.36,2.46c0.44,0.68,1.23,1.61,2.36,2.77c1.13,1.16,2.42,2.44,3.87,3.85c1.45,1.4,2.33,2.26,2.64,2.56
		c1.74,1.88,3.44,3.56,5.08,5.03c2.46,2.39,4.29,4.26,5.49,5.59V154.2v-1.69c0-1.33-0.21-2.85-0.64-4.54
		c-0.43-1.69-0.97-3.03-1.62-4.03c-0.68-0.82-0.97-1.34-0.85-1.56C305.27,142.15,306.17,142.01,307.84,141.94z M282.15,202.51
		c0.17-3.39,0.29-8.48,0.36-15.28c-0.07-6.77-0.19-11.86-0.36-15.28c-0.31-5.91-0.74-11.01-1.28-15.28
		c-0.55,4.27-0.97,9.37-1.28,15.28c-0.17,3.42-0.29,8.51-0.36,15.28c0.07,6.8,0.19,11.9,0.36,15.28c0.31,5.95,0.73,11.04,1.28,15.28
		C281.42,213.55,281.84,208.45,282.15,202.51z M313.33,171.94c-0.24,4.79-0.36,9.88-0.36,15.28c0,5.44,0.12,10.53,0.36,15.28
		c0.24,5.78,0.67,10.87,1.28,15.28c0.58-4.51,0.99-9.61,1.23-15.28c0.24-4.75,0.36-9.85,0.36-15.28c0-5.4-0.12-10.5-0.36-15.28
		c-0.24-5.64-0.65-10.73-1.23-15.28C314.07,160.45,313.64,165.55,313.33,171.94z"/>
</g>
<path d="M200,367.68c-93.11,0-168.86-75.75-168.86-168.86S106.89,29.96,200,29.96s168.86,75.75,168.86,168.86
	S293.11,367.68,200,367.68z M200,35.46c-90.08,0-163.36,73.28-163.36,163.36S109.92,362.18,200,362.18s163.36-73.28,163.36-163.36
	S290.08,35.46,200,35.46z"/>
<g>
	<path d="M126.04,258.34c-0.77-0.99-1.16-2.42-1.16-4.29v-6.21c0-1.91,0.38-3.36,1.14-4.33c0.76-0.98,2.07-1.46,3.93-1.46
		c1.77,0,3.02,0.43,3.75,1.29c0.73,0.86,1.1,2.1,1.1,3.71v1.46h-3.42v-1.6c0-0.51-0.03-0.93-0.08-1.24
		c-0.05-0.31-0.18-0.57-0.38-0.78c-0.21-0.21-0.52-0.31-0.95-0.31c-0.64,0-1.06,0.21-1.24,0.62c-0.19,0.41-0.28,1.02-0.28,1.82v7.87
		c0,0.81,0.11,1.42,0.32,1.82c0.21,0.4,0.61,0.6,1.2,0.6c0.6,0,0.98-0.2,1.16-0.61c0.17-0.41,0.26-1.01,0.26-1.81v-1.69h3.42v1.43
		c0,1.66-0.36,2.93-1.09,3.84c-0.73,0.91-1.98,1.36-3.77,1.36C128.12,259.83,126.81,259.33,126.04,258.34z"/>
	<path d="M139.48,242.26h3.92l3.34,17.33h-3.25l-0.64-3.81h-2.74l-0.66,3.81h-3.32L139.48,242.26z M142.49,253.6l-1.05-6.97
		l-1.03,6.97H142.49z"/>
	<path d="M148.48,242.26h4.49c1.87,0,3.27,0.34,4.21,1.03s1.41,1.87,1.41,3.55c0,1.13-0.16,2.04-0.47,2.73
		c-0.31,0.69-0.87,1.22-1.67,1.57l2.4,8.45h-3.62l-1.97-7.85h-1.28v7.85h-3.51V242.26z M153.04,249.64c0.83,0,1.41-0.2,1.74-0.61
		s0.5-1.04,0.5-1.92c0-0.86-0.15-1.48-0.45-1.88c-0.3-0.4-0.84-0.6-1.63-0.6h-1.22v5.01H153.04z"/>
	<path d="M160.96,242.26h4.24c1.46,0,2.59,0.19,3.41,0.57c0.82,0.38,1.4,0.96,1.75,1.74c0.35,0.78,0.52,1.83,0.52,3.12v6.31
		c0,1.33-0.17,2.39-0.51,3.2s-0.92,1.41-1.73,1.8c-0.81,0.39-1.93,0.59-3.36,0.59h-4.32V242.26z M165.24,257.13
		c0.61,0,1.07-0.1,1.36-0.29c0.29-0.19,0.48-0.47,0.56-0.85c0.08-0.37,0.12-0.91,0.12-1.6v-7.17c0-0.66-0.05-1.15-0.14-1.49
		s-0.28-0.58-0.57-0.75s-0.73-0.25-1.35-0.25h-0.75v12.39H165.24z"/>
	<path d="M174.09,258.51c-0.8-0.88-1.23-2.24-1.3-4.08l3.04-0.51c0.03,1.1,0.18,1.91,0.46,2.43c0.28,0.52,0.7,0.78,1.25,0.78
		c0.41,0,0.71-0.13,0.9-0.4c0.19-0.26,0.28-0.6,0.28-1.02c0-0.68-0.15-1.27-0.46-1.74s-0.79-1-1.44-1.57l-1.8-1.56
		c-0.71-0.6-1.26-1.24-1.64-1.93c-0.38-0.68-0.57-1.5-0.57-2.46c0-1.41,0.42-2.5,1.25-3.26s1.99-1.14,3.46-1.14
		c1.57,0,2.66,0.45,3.27,1.36c0.61,0.91,0.96,2.06,1.05,3.46l-3.06,0.45c-0.03-0.91-0.13-1.59-0.31-2.02
		c-0.18-0.44-0.53-0.65-1.06-0.65c-0.38,0-0.68,0.15-0.9,0.44s-0.32,0.64-0.32,1.04c0,0.57,0.12,1.05,0.37,1.44
		c0.25,0.39,0.65,0.82,1.19,1.29l1.75,1.54c0.83,0.73,1.48,1.49,1.95,2.3c0.47,0.81,0.71,1.75,0.71,2.83c0,0.83-0.19,1.57-0.56,2.21
		c-0.37,0.65-0.9,1.16-1.57,1.53c-0.68,0.37-1.46,0.56-2.34,0.56C176.09,259.83,174.89,259.39,174.09,258.51z"/>
	<path d="M190.09,258.71c-0.73-0.74-1.1-1.73-1.1-2.97c0-1.03,0.21-1.95,0.63-2.76c0.42-0.81,1.03-1.63,1.83-2.44
		c-0.58-1.03-1.02-1.89-1.32-2.59c-0.29-0.7-0.44-1.4-0.44-2.12c0-1.11,0.33-2.02,1.01-2.74c0.67-0.71,1.59-1.07,2.76-1.07
		c1.1,0,2,0.33,2.7,0.98c0.7,0.66,1.05,1.52,1.05,2.59c0,0.67-0.12,1.29-0.37,1.87c-0.25,0.58-0.55,1.08-0.9,1.52
		c-0.35,0.44-0.8,0.94-1.36,1.51l-0.39,0.41l2.16,3.87c0.19-0.33,0.34-0.84,0.46-1.55c0.12-0.71,0.2-1.39,0.22-2.04h2.33
		c0,1.1-0.12,2.08-0.35,2.94c-0.24,0.86-0.57,1.68-1.02,2.45c0.16,0.2,0.37,0.37,0.64,0.51s0.54,0.22,0.81,0.24v2.5
		c-0.2,0.03-0.38,0.04-0.53,0.04c-0.51,0-1-0.15-1.44-0.44c-0.45-0.29-0.85-0.66-1.21-1.1c-0.8,1-1.88,1.5-3.25,1.5
		C191.8,259.83,190.82,259.46,190.09,258.71z M194.83,256.62l-2.23-3.96c-0.64,0.98-0.96,1.97-0.96,2.95c0,0.58,0.13,1.06,0.38,1.43
		c0.26,0.37,0.62,0.56,1.09,0.56C193.8,257.6,194.37,257.27,194.83,256.62z M194.19,247.43c0.27-0.71,0.41-1.33,0.41-1.87
		c0-0.37-0.1-0.66-0.31-0.88c-0.21-0.21-0.47-0.32-0.78-0.32c-0.34,0-0.61,0.14-0.8,0.41c-0.19,0.27-0.29,0.63-0.29,1.07
		c0,0.91,0.29,2.03,0.86,3.36C193.61,248.72,193.91,248.13,194.19,247.43z"/>
	<path d="M207.96,258.34c-0.77-0.99-1.16-2.42-1.16-4.29v-6.21c0-1.91,0.38-3.36,1.14-4.33c0.76-0.98,2.07-1.46,3.93-1.46
		c1.77,0,3.02,0.43,3.75,1.29c0.73,0.86,1.1,2.1,1.1,3.71v1.46h-3.42v-1.6c0-0.51-0.03-0.93-0.08-1.24
		c-0.05-0.31-0.18-0.57-0.38-0.78c-0.21-0.21-0.52-0.31-0.95-0.31c-0.64,0-1.06,0.21-1.24,0.62c-0.19,0.41-0.28,1.02-0.28,1.82v7.87
		c0,0.81,0.11,1.42,0.32,1.82c0.21,0.4,0.61,0.6,1.2,0.6c0.6,0,0.98-0.2,1.16-0.61c0.17-0.41,0.26-1.01,0.26-1.81v-1.69h3.42v1.43
		c0,1.66-0.36,2.93-1.09,3.84c-0.73,0.91-1.98,1.36-3.77,1.36C210.04,259.83,208.73,259.33,207.96,258.34z"/>
	<path d="M219.82,258.38c-0.79-0.96-1.18-2.38-1.18-4.25v-6.46c0-1.87,0.39-3.27,1.18-4.21c0.78-0.94,2.1-1.41,3.94-1.41
		c1.83,0,3.13,0.47,3.93,1.42c0.79,0.95,1.19,2.35,1.19,4.2v6.48c0,1.85-0.4,3.26-1.19,4.23s-2.1,1.44-3.93,1.44
		C221.91,259.83,220.6,259.34,219.82,258.38z M224.96,256.69c0.21-0.41,0.31-0.97,0.31-1.68v-8.19c0-0.71-0.1-1.27-0.31-1.66
		c-0.21-0.39-0.61-0.59-1.21-0.59c-0.6,0-1,0.2-1.21,0.59c-0.21,0.39-0.31,0.95-0.31,1.66v8.19c0,0.73,0.1,1.29,0.3,1.69
		c0.2,0.4,0.61,0.6,1.22,0.6C224.35,257.3,224.76,257.1,224.96,256.69z"/>
	<path d="M231.22,242.26h3.51v14.93h4.09v2.4h-7.6V242.26z"/>
	<path d="M240.48,242.26h3.51v14.93h4.09v2.4h-7.6V242.26z"/>
	<path d="M249.75,242.26h7.55v2.44h-4.04v4.6h3.12v2.46h-3.12v5.43h4.09v2.4h-7.6V242.26z"/>
	<path d="M260.04,258.34c-0.77-0.99-1.16-2.42-1.16-4.29v-6.21c0-1.91,0.38-3.36,1.14-4.33c0.76-0.98,2.07-1.46,3.93-1.46
		c1.77,0,3.02,0.43,3.75,1.29c0.73,0.86,1.1,2.1,1.1,3.71v1.46h-3.42v-1.6c0-0.51-0.03-0.93-0.08-1.24
		c-0.05-0.31-0.18-0.57-0.38-0.78c-0.21-0.21-0.52-0.31-0.95-0.31c-0.64,0-1.06,0.21-1.24,0.62c-0.19,0.41-0.28,1.02-0.28,1.82v7.87
		c0,0.81,0.11,1.42,0.32,1.82c0.21,0.4,0.61,0.6,1.2,0.6c0.6,0,0.98-0.2,1.16-0.61c0.17-0.41,0.26-1.01,0.26-1.81v-1.69h3.42v1.43
		c0,1.66-0.36,2.93-1.09,3.84c-0.73,0.91-1.98,1.36-3.77,1.36C262.12,259.83,260.81,259.33,260.04,258.34z"/>
	<path d="M272.6,244.87h-2.67v-2.61h8.86v2.61h-2.63v14.72h-3.55V244.87z"/>
	<path d="M280.39,242.26h3.51v17.33h-3.51V242.26z"/>
	<path d="M286.53,242.26h4.41c1.68,0,2.99,0.32,3.92,0.97c0.93,0.65,1.39,1.82,1.39,3.52c0,1.03-0.22,1.84-0.65,2.43
		c-0.44,0.59-1.06,0.96-1.87,1.1c1.01,0.14,1.77,0.57,2.28,1.28c0.51,0.71,0.76,1.69,0.76,2.93c0,3.39-1.68,5.09-5.05,5.09h-5.18
		V242.26z M290.94,249.26c0.86,0,1.44-0.19,1.75-0.58c0.31-0.38,0.47-1,0.47-1.84c0-0.77-0.2-1.32-0.6-1.66
		c-0.4-0.33-1.02-0.5-1.86-0.5h-0.66v4.58H290.94z M291.04,257.11c0.86,0,1.46-0.21,1.81-0.64c0.35-0.43,0.52-1.1,0.52-2.03
		c0-1-0.18-1.71-0.54-2.15c-0.36-0.43-0.98-0.65-1.85-0.65h-0.94v5.48H291.04z"/>
	<path d="M298.83,242.26h3.51v14.93h4.09v2.4h-7.6V242.26z"/>
	<path d="M308.09,242.26h7.55v2.44h-4.04v4.6h3.12v2.46h-3.12v5.43h4.09v2.4h-7.6V242.26z"/>
	<path d="M318.36,258.51c-0.8-0.88-1.23-2.24-1.31-4.08l3.04-0.51c0.03,1.1,0.18,1.91,0.46,2.43c0.28,0.52,0.7,0.78,1.25,0.78
		c0.41,0,0.71-0.13,0.9-0.4c0.19-0.26,0.28-0.6,0.28-1.02c0-0.68-0.15-1.27-0.46-1.74s-0.79-1-1.44-1.57l-1.8-1.56
		c-0.71-0.6-1.26-1.24-1.64-1.93s-0.57-1.5-0.57-2.46c0-1.41,0.42-2.5,1.25-3.26c0.83-0.76,1.99-1.14,3.46-1.14
		c1.57,0,2.66,0.45,3.27,1.36s0.96,2.06,1.05,3.46l-3.06,0.45c-0.03-0.91-0.13-1.59-0.31-2.02c-0.18-0.44-0.53-0.65-1.06-0.65
		c-0.39,0-0.68,0.15-0.9,0.44c-0.21,0.29-0.32,0.64-0.32,1.04c0,0.57,0.12,1.05,0.37,1.44c0.25,0.39,0.65,0.82,1.19,1.29l1.75,1.54
		c0.83,0.73,1.48,1.49,1.95,2.3c0.47,0.81,0.71,1.75,0.71,2.83c0,0.83-0.19,1.57-0.56,2.21c-0.37,0.65-0.9,1.16-1.57,1.53
		c-0.68,0.37-1.46,0.56-2.34,0.56C320.36,259.83,319.16,259.39,318.36,258.51z"/>
</g>
<g>
	<path class="st0" d="M323.05,273.65c-3.58-3.49-9.42-4.83-13.79-1.91c-3.95,2.65-5.03,8.01-0.75,10.9
		c1.86,1.25,4.15,1.66,6.17,0.33c0.72-0.48,2.39-2.52,1.41-4.48c-0.73-1.48-2.49-2.18-4.03-1.5c-1.53,0.67-2.22,2.44-1.53,3.95
		c0.29,0.63,0.78,1.1,1.35,1.41c-0.65-0.08-1.31-0.31-1.89-0.65c-4.52-2.74-2-7.99,2.38-9.18c4.22-1.16,8.76,1.34,10.8,4.97
		c2.37,4.21,1.5,9.37-0.95,13.36c-0.8,1.3-1.69,2.55-2.66,3.77c-5.52,4.28-12.73,7.01-18.53,7.02c-5.46,0-11.5-1.2-16.41,1.35
		c-5.4,2.81-8.98,9.05-16.26,7.41c-7.69-1.74-2.19-19.3,4.72-9.88c0.5,0.68,1.35,0.74,1.61,0c1.68-5.09-1.92-8.34-5.33-8.64
		c-23.82-2.12-20.52,23.27-10.57,25.31c-7.6-1.67-16.5,1.76-21.84,7.22c-4.29,4.39-10.95,22.35-28.82,19.16
		c-5.72-1.02-5.53-11.12,2.45-6.8c1.66,1.35,3.58,0.27,2.21-1.62c-3.68-5.05-7.68-6.98-11.27-6.98c-1.01,0-2.01,0-3.02,0
		c-3.59,0-7.59,1.93-11.27,6.98c-1.37,1.89,0.55,2.97,2.21,1.62c7.98-4.32,8.16,5.78,2.45,6.8c-17.87,3.19-24.53-14.77-28.82-19.16
		c-5.34-5.46-14.24-8.89-21.84-7.22c9.95-2.04,13.25-27.43-10.57-25.31c-3.42,0.3-7.01,3.55-5.33,8.64c0.25,0.74,1.1,0.68,1.6,0
		c6.91-9.41,12.41,8.14,4.72,9.88c-7.27,1.64-10.86-4.6-16.26-7.41c-4.9-2.55-10.94-1.35-16.41-1.35
		c-5.14-0.01-11.38-2.15-16.58-5.61c-1.46-1.64-2.76-3.37-3.87-5.17c-2.45-3.99-3.32-9.15-0.95-13.36c2.04-3.63,6.59-6.13,10.8-4.97
		c4.38,1.19,6.9,6.44,2.38,9.18c-0.58,0.35-1.24,0.58-1.89,0.65c0.58-0.31,1.06-0.78,1.35-1.41c0.69-1.5,0-3.27-1.53-3.95
		c-1.54-0.68-3.3,0.02-4.03,1.5c-0.98,1.96,0.69,4,1.41,4.48c2.02,1.33,4.3,0.92,6.17-0.33c4.27-2.89,3.2-8.25-0.75-10.9
		c-4.37-2.92-10.21-1.58-13.79,1.91c-3.8,3.7-4.66,9.31-3.19,14.22c0.23,0.8,0.52,1.58,0.86,2.35c0.79,1.78,1.85,3.48,3.11,5.1
		c-0.01,0.01-0.03,0.02-0.05,0.03c19.96,25.47,71.3,61.54,121.58,58.61c46.67,2.72,94.26-28.17,116.81-52.99c0,0,0,0,0.01,0l0,0
		c0.07-0.08,0.14-0.16,0.21-0.23c3.57-3.02,6.62-6.58,8.36-10.51c0.34-0.78,0.62-1.56,0.86-2.35
		C327.71,282.97,326.85,277.35,323.05,273.65z"/>
	<g>
		<path class="st0" d="M211.4,266.91c-4.1,0.24-7.92,1.25-10.75,2.89c1.94-0.36,3.76-0.55,5.47-0.6c-0.06,0.03-0.12,0.07-0.18,0.1
			c0.2-0.04,0.4-0.07,0.6-0.1c11.35-0.16,17.85,6.06,22.1,12.08c2.49,3.53,9.06,2.36,6.37-3.47c-1.48-3.21-4.02-5.64-7.1-7.41
			c9.14,3.18,15.25,9.66,19.71,15.98c3.71,5.26,13.47,3.52,9.47-5.17C249.94,265.67,226.28,262.09,211.4,266.91z"/>
		<path class="st0" d="M142.91,281.23c-4,8.68,5.76,10.42,9.47,5.17c4.46-6.32,10.57-12.8,19.71-15.98
			c-3.08,1.76-5.62,4.19-7.1,7.41c-2.69,5.84,3.88,7.01,6.37,3.47c4.25-6.03,10.74-12.25,22.1-12.08c0.2,0.04,0.4,0.07,0.6,0.1
			c-0.06-0.04-0.12-0.07-0.18-0.1c1.71,0.05,3.53,0.24,5.47,0.6c-2.83-1.64-6.65-2.65-10.75-2.89
			C173.72,262.09,150.06,265.67,142.91,281.23z"/>
	</g>
	<g>
		<path class="st1" d="M215.02,333.56c1.59,2.2,1.05,4.33-0.2,5.47c-0.07,0.06-0.15,0.11-0.23,0.17v1.87
			c0.63-0.09,1.24-0.2,1.83-0.35v-66.78c-0.59-0.27-1.2-0.53-1.83-0.75V333C214.73,333.19,214.87,333.36,215.02,333.56z"/>
		<path class="st0" d="M208.67,272.08v-0.1c-0.07,0-0.14-0.02-0.21-0.02L208.67,272.08z"/>
		<polygon class="st0" points="208.67,274.67 208.67,274.28 207.67,274.1 		"/>
		<path class="st1" d="M222.33,278.04v59.86c0.64-0.46,1.25-0.96,1.83-1.49v-56.44C223.61,279.33,222.99,278.68,222.33,278.04z"/>
		<path class="st1" d="M230.08,285.58v43.76c0.52-0.76,1.02-1.51,1.5-2.23c0.12-0.17,0.22-0.33,0.34-0.5v-40.64
			C231.3,285.92,230.68,285.78,230.08,285.58z"/>
		<path class="st1" d="M238.38,279.84c0.08,1.15-0.15,2.14-0.54,2.97v37.21c0.59-0.45,1.2-0.88,1.83-1.29V281.1
			C239.24,280.67,238.81,280.24,238.38,279.84z"/>
		<path class="st1" d="M245.58,288.2v27.59c0.61-0.22,1.22-0.42,1.83-0.6v-25.16C246.73,289.51,246.12,288.9,245.58,288.2z"/>
		<path class="st1" d="M183.58,340.71c0.59,0.15,1.2,0.27,1.83,0.35v-1.87c-0.08-0.06-0.16-0.11-0.23-0.17
			c-1.25-1.14-1.8-3.27-0.21-5.47c0.14-0.2,0.29-0.37,0.44-0.56v-59.82c-0.64,0.23-1.25,0.48-1.83,0.75V340.71z"/>
		<polygon class="st0" points="191.33,274.28 191.33,274.62 192.19,274.12 		"/>
		<path class="st1" d="M168.08,285.97v40.64c0.11,0.17,0.22,0.33,0.33,0.5c0.48,0.72,0.98,1.47,1.5,2.23v-43.76
			C169.32,285.78,168.7,285.92,168.08,285.97z"/>
		<path class="st1" d="M161.62,279.84c-0.43,0.4-0.86,0.83-1.29,1.25v37.64c0.63,0.41,1.24,0.83,1.83,1.29v-37.21
			C161.77,281.98,161.54,280.99,161.62,279.84z"/>
		<path class="st1" d="M208.67,274.85l-1.83-0.35v52.08c0.6,0.26,1.21,0.56,1.83,0.93V274.85z"/>
		<path class="st1" d="M191.33,274.84v52.67c0.62-0.37,1.23-0.67,1.83-0.93v-52.09L191.33,274.84z"/>
		<path class="st0" d="M191.54,271.96c-0.07,0-0.14,0.01-0.2,0.02v0.1L191.54,271.96z"/>
		<path class="st1" d="M199.08,325.47c0.32,0.01,0.63,0.04,0.92,0.07c0.28-0.03,0.6-0.06,0.92-0.07v-52.1l-0.93-0.18l-0.9,0.17
			V325.47z"/>
		<path class="st1" d="M152.58,290.03v25.16c0.62,0.18,1.23,0.38,1.83,0.6V288.2C153.88,288.9,153.27,289.51,152.58,290.03z"/>
		<path class="st1" d="M177.67,337.91v-59.86c-0.66,0.63-1.27,1.28-1.83,1.93v56.44C176.42,336.94,177.03,337.44,177.67,337.91z"/>
	</g>
</g>
<g>
	<path class="st1" d="M94.38,96.25c-2.54-2.61-2.57-6.16-0.1-8.57c2.47-2.41,5.95-2.22,8.49,0.39c2.47,2.54,2.71,6.02,0.1,8.57
		C100.4,99.04,96.86,98.79,94.38,96.25z"/>
	<path class="st1" d="M115.54,77.99c-2.01-3.04-1.36-6.54,1.52-8.43c2.88-1.9,6.26-1.06,8.27,1.98c1.95,2.96,1.52,6.43-1.52,8.43
		C120.92,81.87,117.49,80.95,115.54,77.99z"/>
	<path class="st1" d="M139.76,64.07c-1.39-3.37-0.09-6.67,3.09-7.99c3.19-1.31,6.35,0.15,7.74,3.52c1.35,3.28,0.27,6.6-3.09,7.99
		C144.31,68.9,141.11,67.35,139.76,64.07z"/>
	<path class="st1" d="M166.17,55.01c-0.72-3.57,1.18-6.57,4.56-7.26c3.38-0.69,6.2,1.35,6.93,4.92c0.71,3.47-0.99,6.53-4.56,7.26
		C169.72,60.62,166.88,58.48,166.17,55.01z"/>
	<path class="st1" d="M221.77,52.46c0.65-3.59,3.52-5.67,6.91-5.06c3.39,0.61,5.26,3.55,4.62,7.14c-0.63,3.49-3.33,5.7-6.91,5.06
		C222.99,58.98,221.14,55.95,221.77,52.46z"/>
	<path class="st1" d="M248.9,59.08c1.32-3.4,4.54-4.9,7.75-3.65s4.49,4.49,3.18,7.88c-1.28,3.31-4.35,4.97-7.75,3.65
		C248.86,65.72,247.62,62.38,248.9,59.08z"/>
	<path class="st1" d="M274.29,70.74c1.94-3.09,5.38-3.95,8.3-2.12c2.92,1.83,3.56,5.26,1.63,8.34c-1.88,3-5.21,4.05-8.3,2.12
		C273,77.25,272.41,73.74,274.29,70.74z"/>
	<path class="st1" d="M297.03,86.99c2.48-2.67,6.03-2.87,8.55-0.52c2.52,2.35,2.51,5.83,0.03,8.5c-2.41,2.6-5.88,3-8.55,0.52
		C294.54,93.14,294.62,89.58,297.03,86.99z"/>
	<path class="st1" d="M316.32,107.23c2.94-2.15,6.46-1.68,8.5,1.1c2.04,2.78,1.37,6.2-1.57,8.35c-2.86,2.09-6.34,1.84-8.5-1.1
		C312.71,112.8,313.46,109.32,316.32,107.23z"/>
	<path class="st1" d="M331.42,130.73c3.29-1.56,6.66-0.42,8.13,2.69c1.47,3.12,0.17,6.35-3.13,7.9c-3.21,1.51-6.58,0.6-8.13-2.69
		C326.82,135.51,328.21,132.24,331.42,130.73z"/>
	<path class="st1" d="M341.78,156.65c3.53-0.9,6.62,0.85,7.47,4.19c0.85,3.34-1.04,6.26-4.57,7.16c-3.43,0.88-6.57-0.66-7.47-4.19
		C336.36,160.48,338.35,157.53,341.78,156.65z"/>
	<path class="st1" d="M347.08,183.94c3.64-0.19,6.32,2.14,6.5,5.58c0.18,3.44-2.26,5.93-5.9,6.12c-3.54,0.18-6.31-1.95-6.5-5.58
		C341,186.62,343.54,184.12,347.08,183.94z"/>
	<path class="st1" d="M347.06,212.06c3.61,0.47,5.84,3.24,5.4,6.66c-0.44,3.42-3.28,5.43-6.9,4.97c-3.52-0.45-5.86-3.04-5.4-6.66
		C340.6,213.61,343.54,211.6,347.06,212.06z"/>
	<path class="st1" d="M341.8,239.49c3.46,1.15,5.11,4.29,4.03,7.56c-1.08,3.27-4.26,4.71-7.72,3.56c-3.37-1.11-5.18-4.1-4.03-7.56
		C335.17,239.78,338.43,238.37,341.8,239.49z"/>
	<path class="st1" d="M332.65,263c3.46,1.15,5.11,4.29,4.03,7.56c-1.08,3.27-4.26,4.71-7.72,3.56c-3.37-1.11-5.18-4.1-4.03-7.56
		C326.02,263.29,329.29,261.89,332.65,263z"/>
	<path class="st1" d="M76.43,119.1c-3-2.06-3.72-5.54-1.77-8.38c1.95-2.84,5.4-3.34,8.4-1.28c2.92,2.01,3.83,5.38,1.77,8.38
		C82.88,120.67,79.35,121.11,76.43,119.1z"/>
	<path class="st1" d="M60.63,142.88c-3-2.06-3.72-5.54-1.77-8.38c1.95-2.84,5.4-3.34,8.4-1.28c2.92,2.01,3.83,5.38,1.77,8.38
		C67.09,144.44,63.56,144.89,60.63,142.88z"/>
</g>
<path class="st1" d="M200,359.8c-88.76,0-160.98-72.22-160.98-160.98c0-88.76,72.21-160.98,160.98-160.98
	s160.98,72.21,160.98,160.98C360.98,287.58,288.76,359.8,200,359.8z M200,40.59c-87.25,0-158.23,70.98-158.23,158.23
	S112.75,357.05,200,357.05c87.25,0,158.23-70.98,158.23-158.23S287.25,40.59,200,40.59z"/>
<path class="st0" d="M264.48,281.77c0.29,2.1,1.99,4.35,4.18,3.67c1.02-0.24,0.52-0.99,0.51-0.98c-3.71-2.37,0.01-8.78,4.04-9.26
	c-2.65,1.61-2.09,7.8,1.22,6.68c-0.57-4.43,1.72-7.31,5.07-9.07c-2.11,2.01-3.41,4.83-3.25,7.59c-0.09,3.25,2.2,8.99,5.92,7.31
	c1.38-0.62,2.02-2.44,1.06-3.87c-0.9-1.34-3.13-1.27-3.83-2.62c-0.65-1.26-0.7-3.99,1.82-5.37c3.11-1.7,4.36,2.84,7.79,0.9
	c1.78-1.01,4.81-1.56,6.48,0.05c-2.74-0.71-9.87,4.09-2.85,10.06c0.04,0.01,0.07,0.01,0.11,0.01c0.23,0.18,0.63-0.06,0.46-0.37
	c-0.71-1.26-0.53-3.41,0.99-4.12c1.96-0.91,3.55,0.89,4.01,2.65c0.39,1.46,0.47,3.13,0.22,4.72c-0.67,2.39-1.86,4.65-3.37,6.59
	c-1.8,2.33-3.71,4.25-6.33,5.43c-0.41,1.07-0.36,1.94-0.65,3.12c5.38-2.22,9.58-6.07,11.97-11.48c3.63-8.25,0.41-18.19-7.97-22.81
	C280.8,264.39,263.35,273.66,264.48,281.77z"/>
<path class="st0" d="M136.22,281.77c-0.29,2.1-1.99,4.35-4.18,3.67c-1.02-0.24-0.52-0.99-0.51-0.98c3.71-2.37-0.01-8.78-4.04-9.26
	c2.65,1.61,2.09,7.8-1.22,6.68c0.57-4.43-1.72-7.31-5.07-9.07c2.11,2.01,3.41,4.83,3.25,7.59c0.09,3.25-2.2,8.99-5.92,7.31
	c-1.38-0.62-2.02-2.44-1.06-3.87c0.9-1.34,3.13-1.27,3.83-2.62c0.65-1.26,0.7-3.99-1.82-5.37c-3.11-1.7-4.36,2.84-7.79,0.9
	c-1.78-1.01-4.81-1.56-6.48,0.05c2.74-0.71,9.87,4.09,2.85,10.06c-0.04,0.01-0.07,0.01-0.11,0.01c-0.23,0.18-0.63-0.06-0.46-0.37
	c0.71-1.26,0.53-3.41-0.99-4.12c-1.96-0.91-3.55,0.89-4.01,2.65c-0.39,1.46-0.47,3.13-0.22,4.72c0.67,2.39,1.86,4.65,3.37,6.59
	c1.8,2.33,3.71,4.25,6.33,5.43c0.41,1.07,0.36,1.94,0.65,3.12c-5.38-2.22-9.58-6.07-11.97-11.48c-3.63-8.25-0.41-18.19,7.97-22.81
	C119.9,264.39,137.35,273.66,136.22,281.77z"/>
<g>
	<path d="M194.09,91.39c1.93,3.83,2.93,8.06,2.93,12.35c0,0.17-0.01,0.35-0.02,0.52c2.01-0.05,4.01-0.05,6,0
		c-0.01-0.17-0.02-0.35-0.02-0.52c0-4.29,1-8.52,2.93-12.35l4.25-8.43c1.99-3.95,3.02-8.3,3.02-12.72v0
		c0-6.12-1.99-12.08-5.66-16.97L200,43.23l-7.52,10.02c-3.67,4.9-5.66,10.85-5.66,16.97v0c0,4.42,1.04,8.78,3.02,12.72L194.09,91.39
		z M200,99.74L200,46C201.86,62.54,201.61,80.63,200,99.74z"/>
	<path d="M238.62,83.88c-2.05-4.3-6.67-7.61-11-8.2c-10.24-1.39-19.29,9.74-21.62,23.55c-0.3,1.76-0.43,3.47-0.46,5.13
		c2.37,0.12,4.71,0.31,7.04,0.59c0,0.3-26.02,0-26.02,0c2.66-0.29,5.3-0.49,7.91-0.61c-0.03-1.65-0.17-3.35-0.46-5.11
		c-2.33-13.81-11.38-24.94-21.62-23.55c-4.33,0.59-8.96,3.9-11,8.2c-1.26,2.65-2.65,6.54-2.13,11.41v0c0.04,0.33,0.08,0.67,0.15,1
		c0.03,0.16,0.07,0.32,0.11,0.49c1.27,5.07,6.13,8.45,15.13,6.29c-2.96-1.64-5.92-5.54-3.04-9.07c2.48-3.04,6.22-1.28,7.61-0.27
		c3.19,2.31,5.92,6.26,6.68,10.82c0.02,0.13,0.03,0.25,0.05,0.38c-1.71,0.24-3.03,1.7-3.03,3.48c0,1.7,1.21,3.13,2.82,3.45
		c-0.17,0.67-0.38,1.34-0.64,2.01c-1.09,2.81-6.15,3.74-7.44,1.59c-0.61-1.02-0.87-2.21-1.07-3.28c-4.67,4.74-4.39,9.45-1.59,11.97
		c0.93,0.83,2.13,1.43,3.51,1.7c0.01,0,0.02,0,0.03,0l0,0c0.75,0.02,1.5-0.03,2.25-0.16c6.2-1.04,11-6.3,12.85-13.75h2.09
		c-1.13,3.62-2.99,7.01-5.54,9.91l-0.27,0.3L200,136.03l10.06-13.88l-0.27-0.3c-2.54-2.9-4.4-6.29-5.54-9.91h2.09
		c1.85,7.45,6.65,12.71,12.85,13.75c0.75,0.13,1.5,0.18,2.25,0.16l0,0c0.01,0,0.02,0,0.03,0c1.39-0.27,2.59-0.86,3.51-1.7
		c2.79-2.51,3.08-7.22-1.59-11.97c-0.2,1.07-0.46,2.26-1.07,3.28c-1.29,2.15-6.35,1.22-7.44-1.59c-0.26-0.67-0.47-1.34-0.64-2.01
		c1.61-0.33,2.82-1.75,2.82-3.45c0-1.78-1.32-3.23-3.03-3.48c0.02-0.13,0.03-0.25,0.05-0.38c0.77-4.56,3.49-8.51,6.68-10.82
		c1.39-1.01,5.14-2.77,7.61,0.27c2.88,3.53-0.08,7.43-3.04,9.07c9,2.16,13.86-1.22,15.13-6.29c0.04-0.16,0.07-0.32,0.11-0.49
		c0.07-0.34,0.12-0.67,0.15-1v0C241.27,90.43,239.88,86.53,238.62,83.88z M169.35,79.22c-5.09,2.67-9.75,10.21-6.06,18.19
		c-4.84-6.81,0.04-16.62,4.98-19.51c4.92-2.87,13.99-2.61,19.79,9.23C180.89,75.89,173.86,76.85,169.35,79.22z M236.83,97.4
		c3.68-7.98-0.97-15.52-6.06-18.19c-4.52-2.37-11.54-3.32-18.71,7.91c5.8-11.84,14.88-12.1,19.79-9.23
		C236.79,80.78,241.66,90.6,236.83,97.4z"/>
</g>
<g>
	<path class="st1" d="M238.29,145.8c-0.55,0.8-0.99,1.74-1.27,2.86c-0.46,1.83-0.71,4.21-0.74,7.15v47.13v10.1v1.03
		c0,1.44,0.16,2.81,0.49,4.13s0.84,2.58,1.54,3.79c0.7,1.21,1.68,2.17,2.95,2.91c-0.67-1.19-1.17-2.42-1.49-3.7
		c-0.33-1.32-0.49-2.69-0.49-4.13v-1.03v-10.1v-47.13c0.03-2.94,0.28-5.32,0.74-7.15c0.46-1.83,1.29-3.24,2.49-4.23
		c1.13-0.89,1.2-1.45,0.21-1.69c-0.21-0.03-1.16-0.05-2.87-0.05C239.32,145.68,238.8,145.72,238.29,145.8z"/>
	<path class="st1" d="M141.02,176.3v-10.36c0-1.44,0.16-2.81,0.49-4.13c0.32-1.32,0.84-2.59,1.54-3.82c0.7-1.23,1.69-2.21,2.97-2.95
		c1.28-0.73,2.79-1.1,4.54-1.1s3.26,0.37,4.56,1.1c0.01,0.01,0.03,0.02,0.04,0.03c-0.01-0.03-0.03-0.05-0.04-0.08
		c-0.7-1.23-1.7-2.21-3-2.95c-1.3-0.73-2.82-1.1-4.56-1.1s-3.26,0.37-4.54,1.1c-1.28,0.74-2.27,1.72-2.97,2.95
		c-0.7,1.23-1.21,2.5-1.54,3.82c-0.33,1.32-0.49,2.69-0.49,4.13v10.36v16.21c0.98-0.45,1.98-0.82,3-1.15V176.3z"/>
	<path class="st1" d="M196.74,210.07c-0.24,0.96-0.44,1.45-0.62,1.49c-0.1,0.04-0.22-0.07-0.36-0.31l-0.21-0.46
		c-0.21-0.44-0.65-0.83-1.33-1.15c-0.68-0.33-1.45-0.49-2.31-0.49c-0.85,0-1.69,0.15-2.51,0.46c-0.82,0.31-1.5,0.94-2.05,1.9
		c-0.55,0.96-0.82,2.17-0.82,3.64c0,0.44,0.07,1.11,0.21,2c0.03,0.07,0.05,0.19,0.05,0.36c0.14,0.48,0.24,0.85,0.31,1.13
		c0,0.07,0.03,0.17,0.08,0.31c0.05,0.14,0.09,0.26,0.13,0.36c0,0.07,0.03,0.15,0.08,0.26s0.09,0.21,0.13,0.31l0.05,0.1
		c0.88,2.1,2.16,3.6,3.79,4.53c-0.29-0.47-0.55-0.97-0.79-1.53l-0.05-0.1c-0.03-0.1-0.08-0.21-0.13-0.31s-0.08-0.19-0.08-0.26
		c-0.03-0.1-0.08-0.22-0.13-0.36c-0.05-0.14-0.08-0.24-0.08-0.31c-0.07-0.27-0.17-0.65-0.31-1.13c0-0.17-0.02-0.29-0.05-0.36
		c-0.14-0.89-0.21-1.56-0.21-2c0-1.47,0.27-2.68,0.82-3.64c0.55-0.96,1.23-1.59,2.05-1.9c0.82-0.31,1.66-0.46,2.51-0.46
		c0.85,0,1.62,0.16,2.31,0.49c0.68,0.33,1.13,0.71,1.33,1.15l0.21,0.46c0.14,0.24,0.26,0.34,0.36,0.31
		c0.17-0.03,0.38-0.53,0.62-1.49c0.51-2.56-0.07-4.83-1.74-6.79c-0.67-0.78-1.4-1.4-2.19-1.87
		C196.84,206.1,197.16,207.98,196.74,210.07z"/>
	<path class="st1" d="M309.25,167.45v-0.14c-0.57-0.57-1.19-1.19-1.86-1.84C308.12,166.23,308.75,166.89,309.25,167.45z"/>
	<path class="st1" d="M302.53,160.73c-0.28-0.29-0.56-0.58-0.84-0.89c-0.26-0.26-0.95-0.93-2.02-1.96
		C300.64,158.89,301.59,159.84,302.53,160.73z"/>
	<path class="st1" d="M290.66,145.94c-0.48,0-0.95,0.04-1.42,0.1c0.01,0.46,0.19,0.99,0.57,1.62c0.44,0.68,1.23,1.61,2.36,2.77
		c0.9,0.92,1.9,1.92,3,3c-1.13-1.16-1.91-2.08-2.36-2.77c-0.65-1.06-0.77-1.88-0.36-2.46c0.41-0.58,0.79-1.05,1.13-1.41
		c0.34-0.36,0.31-0.59-0.1-0.69c-0.68-0.17-1.52-0.21-2.51-0.1c-0.07-0.03-0.15-0.05-0.26-0.05H290.66z"/>
	<path class="st1" d="M220.25,155.48c0-1.33,0.21-2.85,0.64-4.56c0.43-1.71,0.98-3.04,1.67-4c0.22-0.26,0.38-0.48,0.51-0.68
		c-0.19-0.44-0.4-0.83-0.62-1.18c-0.43-0.06-1.01-0.11-1.74-0.14h-0.05c-0.6,0-1.18,0.04-1.75,0.12c-0.39,0.8-0.74,1.75-1.02,2.88
		c-0.43,1.71-0.64,3.23-0.64,4.56v3.69v51.13c0,2.26,0.08,4.49,0.23,6.69c0.15,2.21,0.32,3.96,0.49,5.26
		c0.17,1.3,0.31,2.48,0.41,3.54c0.1,1.06,0.11,1.81,0.03,2.26c-0.09,0.45-0.3,0.67-0.64,0.67c-2.39,0-4.53,0.92-6.41,2.77
		c-0.89,0.89-2.32,1.81-4.28,2.77c-1.97,0.96-3.92,1.66-5.87,2.1c-1.2,0.27-2.29,0.41-3.28,0.41h-1.95h-2
		c-2.15,0-4.63-0.58-7.44-1.74c-2.8-1.16-4.8-2.34-6-3.54c-0.07-0.07-0.16-0.15-0.28-0.26c-0.12-0.1-0.21-0.19-0.28-0.26
		c-1.05-0.95-2.21-1.59-3.46-1.94c-0.02,0.25-0.04,0.5-0.05,0.74c-0.03,0.72,0,1.22,0.1,1.51s0.31,0.44,0.62,0.44
		c2.19,0,4.12,0.75,5.79,2.26c0.07,0.07,0.16,0.15,0.28,0.26c0.12,0.1,0.21,0.19,0.28,0.26c1.2,1.2,3.2,2.38,6,3.54
		c2.8,1.16,5.28,1.74,7.44,1.74h2h1.95c0.99,0,2.08-0.14,3.28-0.41c1.95-0.44,3.9-1.15,5.87-2.1c1.96-0.96,3.39-1.88,4.28-2.77
		c1.88-1.85,4.02-2.77,6.41-2.77c0.34,0,0.55-0.22,0.64-0.67c0.08-0.44,0.08-1.2-0.03-2.26c-0.1-1.06-0.24-2.24-0.41-3.54
		c-0.17-1.3-0.33-3.05-0.49-5.26c-0.15-2.21-0.23-4.44-0.23-6.69v-51.13V155.48z"/>
	<path class="st1" d="M172.51,231.38c-0.41-1.67-0.63-3.21-0.67-4.62v-54.1v-0.05c0-2.29,0.08-4.56,0.23-6.79
		c0.15-2.24,0.32-4.03,0.49-5.36c0.17-1.33,0.31-2.55,0.41-3.64c0.1-1.09,0.11-1.86,0.03-2.31c-0.09-0.44-0.3-0.67-0.64-0.67
		c-0.82,0-1.61-0.11-2.36-0.32c-0.01,0.1-0.01,0.19-0.02,0.3c-0.1,1.09-0.24,2.31-0.41,3.64c-0.17,1.33-0.33,3.12-0.49,5.36
		c-0.15,2.24-0.23,4.5-0.23,6.79v0.05v54.1c0.03,1.4,0.26,2.94,0.67,4.62s0.96,2.97,1.64,3.9c0.68,0.82,0.96,1.34,0.82,1.56
		c-0.14,0.22-1.03,0.37-2.67,0.44h-0.05c-1.09,0-2.19-0.16-3.28-0.49c-1.09-0.32-1.92-0.66-2.46-1l-0.87-0.46
		c-1.4,0.99-2.92,1.6-4.54,1.83c-0.36,0.51-0.76,0.98-1.23,1.37c-0.58,0.48-0.89,0.86-0.92,1.13c0,0.51,1.03,0.72,3.08,0.62
		c0.27,0,0.44,0,0.51,0c2.22,0,4.26-0.65,6.1-1.95l0.87,0.46c0.55,0.34,1.37,0.68,2.46,1c1.09,0.33,2.19,0.49,3.28,0.49h0.05
		c1.64-0.07,2.53-0.21,2.67-0.44c0.14-0.22-0.14-0.74-0.82-1.56C173.46,234.35,172.92,233.05,172.51,231.38z"/>
	<path class="st1" d="M121.33,234.96c-0.38,0.07-0.81,0.14-1.27,0.22c0,0.15,0.01,0.27,0.01,0.43c0,5.21-1.4,10.07-4.2,14.56
		c-2.8,4.49-5.74,7.31-8.82,8.45c-3.62,1.33-9.15,2-16.61,2h-2.63c-2.78,0-6.03-0.78-9.76-2.34c-3.73-1.56-6.36-3.1-7.88-4.62
		c-1.88-1.88-3.99-3.03-6.3-3.46c-0.05,0.85-0.03,1.5,0.05,1.92c0.11,0.59,0.4,0.88,0.86,0.88c3.16,0,5.96,1.22,8.39,3.65
		c1.52,1.52,4.15,3.06,7.88,4.62c3.73,1.56,6.98,2.34,9.76,2.34h2.63c7.46,0,13-0.67,16.61-2c3.08-1.14,6.02-3.96,8.82-8.45
		c2.8-4.49,4.2-9.34,4.2-14.56c0-1.64-0.13-2.68-0.4-3.14C122.41,235.02,121.96,234.85,121.33,234.96z"/>
	<path class="st1" d="M144.3,235.58c-1.3-1.06-2.17-2.58-2.62-4.56c-0.44-1.98-0.67-4.63-0.67-7.95v-20
		c3.75-3.21,9.13-4.97,16.13-5.29v-3.05c-8.48-0.1-14.85,1.68-19.13,5.33v20c0,3.32,0.22,5.97,0.67,7.95
		c0.44,1.98,1.32,3.5,2.62,4.56c1.5,1.2,1.09,1.79-1.23,1.79c-0.24,0-0.56-0.02-0.97-0.05c-0.24,0-0.41,0-0.51,0
		c-0.96,0-1.94-0.17-2.95-0.51c-1.01-0.34-1.77-0.68-2.28-1.03l-0.82-0.46c-1.49,1.02-3.12,1.64-4.91,1.88
		c-0.19,0.4-0.39,0.79-0.61,1.12c-0.68,0.82-0.97,1.34-0.85,1.56c0.12,0.22,1.02,0.37,2.69,0.44h0.05c2.46,0,4.67-0.67,6.62-2
		l0.82,0.46c0.51,0.34,1.27,0.68,2.28,1.03c1.01,0.34,1.99,0.51,2.95,0.51c0.1,0,0.27,0,0.51,0c0.41,0.04,0.73,0.05,0.97,0.05
		C145.4,237.38,145.81,236.78,144.3,235.58z"/>
	<path class="st1" d="M327.28,235.58c-1.3-1.06-2.17-2.58-2.62-4.56c-0.45-1.98-0.67-4.63-0.67-7.95V160.2
		c0-3.32,0.22-5.97,0.67-7.95c0.44-1.98,1.32-3.5,2.62-4.56c1.09-0.89,1.16-1.45,0.21-1.69c-0.21-0.03-1.18-0.05-2.92-0.05
		c-0.52,0-1.02,0.04-1.52,0.11c-0.63,0.89-1.1,1.94-1.38,3.19c-0.45,1.98-0.67,4.63-0.67,7.95v62.87c0,3.32,0.22,5.97,0.67,7.95
		c0.44,1.98,1.32,3.5,2.62,4.56c1.47,1.2,1.06,1.79-1.23,1.79c-0.24,0-0.56-0.02-0.97-0.05c-0.24,0-0.41,0-0.51,0
		c-0.96,0-1.94-0.16-2.95-0.49c-1.01-0.32-1.79-0.64-2.33-0.95l-0.77-0.51c-1.48,0.99-3.12,1.6-4.9,1.83
		c-0.19,0.41-0.4,0.79-0.62,1.11c-0.68,0.82-0.97,1.34-0.85,1.56c0.12,0.22,1.02,0.37,2.69,0.44h0.05c2.46,0,4.67-0.65,6.62-1.95
		l0.77,0.51c0.55,0.31,1.32,0.62,2.33,0.95c1.01,0.33,1.99,0.49,2.95,0.49c0.1,0,0.27,0,0.51,0c0.41,0.04,0.73,0.05,0.97,0.05
		C328.34,237.38,328.75,236.78,327.28,235.58z"/>
	<path class="st1" d="M290.95,231.35c-0.43-1.69-0.64-3.21-0.64-4.54v-63.85l6.71,6.25c-0.92-0.98-1.88-1.94-2.89-2.89l-6.82-6.36
		v63.85c0,1.33,0.21,2.85,0.64,4.54c0.43,1.69,0.96,3.02,1.62,3.97c0.68,0.82,0.96,1.34,0.82,1.56c-0.14,0.22-1.03,0.37-2.67,0.44
		h-0.05c-1.09,0-2.19-0.16-3.28-0.49c-1.09-0.32-1.92-0.64-2.46-0.95l-0.87-0.51c-1.4,0.99-2.91,1.6-4.53,1.83
		c-0.36,0.51-0.76,0.98-1.24,1.37c-0.58,0.48-0.89,0.85-0.92,1.13c0,0.51,1.03,0.72,3.08,0.62c0.27,0,0.44,0,0.51,0
		c2.22,0,4.26-0.65,6.1-1.95l0.87,0.51c0.55,0.31,1.37,0.62,2.46,0.95c1.09,0.33,2.19,0.49,3.28,0.49h0.05
		c1.64-0.07,2.53-0.21,2.67-0.44c0.14-0.22-0.14-0.74-0.82-1.56C291.91,234.37,291.37,233.04,290.95,231.35z"/>
	<path class="st1" d="M271.1,224.81c-0.08-0.82-0.21-1.99-0.36-3.51c-0.15-1.52-0.28-3-0.38-4.44c-0.03-0.14-0.05-1.97-0.05-5.49
		c0-3.59-0.05-6.38-0.15-8.36l0.05-43.08v-3.69c0-1.33,0.21-2.85,0.64-4.56c0.43-1.71,0.98-3.04,1.67-4
		c0.68-0.82,0.96-1.34,0.82-1.56c-0.14-0.22-1.04-0.37-2.72-0.44c-0.6,0-1.18,0.04-1.75,0.12c-0.39,0.8-0.74,1.75-1.02,2.88
		c-0.43,1.71-0.64,3.23-0.64,4.56v3.69l-0.05,43.08c0.1,1.98,0.15,4.77,0.15,8.36c0,3.52,0.02,5.35,0.05,5.49
		c0.1,1.44,0.23,2.92,0.38,4.44c0.15,1.52,0.27,2.69,0.36,3.51s0.15,1.6,0.21,2.33c0.05,0.74,0.02,1.25-0.1,1.54
		c-0.12,0.29-0.32,0.44-0.59,0.44c-2.19,0-4.14,0.75-5.85,2.26l-0.51,0.51c-1.2,1.16-3.21,2.33-6.03,3.51
		c-2.82,1.18-5.29,1.77-7.41,1.77h-2h-1.95c-2.15,0-4.65-0.59-7.49-1.77s-4.84-2.37-6-3.56c-1.2-1.2-2.53-1.99-4-2.4
		c-0.08,0.93-0.08,1.61,0,2.01c0.08,0.45,0.3,0.67,0.64,0.67c2.43,0,4.55,0.91,6.36,2.72c1.16,1.2,3.16,2.38,6,3.56
		s5.33,1.77,7.49,1.77h1.95h2c2.12,0,4.59-0.59,7.41-1.77c2.82-1.18,4.83-2.35,6.03-3.51l0.51-0.51c1.71-1.5,3.66-2.26,5.85-2.26
		c0.27,0,0.47-0.14,0.59-0.44c0.12-0.29,0.15-0.8,0.1-1.54C271.25,226.41,271.18,225.63,271.1,224.81z"/>
	<path class="st1" d="M119.76,156.46c-0.13,1.08-0.31,2.63-0.51,4.62c-0.21,2-0.37,3.93-0.49,5.79c-0.04,0.19-0.06,0.48-0.06,0.86
		c-0.15,1.45-0.43,2.85-0.83,4.22c-0.4,1.37-1.06,2.9-1.97,4.6c-0.91,1.69-2.29,3.18-4.14,4.45c-1.85,1.28-4.06,2.16-6.65,2.65
		c-1.52,0.34-3.24,0.51-5.14,0.51c-2.29,0-4.29-0.61-6.04-1.81c0.22,0.32,0.47,0.64,0.73,0.96c2.19,2.57,4.96,3.85,8.31,3.85
		c1.9,0,3.62-0.17,5.14-0.51c2.59-0.49,4.8-1.38,6.65-2.65c1.85-1.27,3.23-2.76,4.14-4.45c0.91-1.69,1.57-3.23,1.97-4.6
		c0.4-1.37,0.68-2.78,0.83-4.22c0-0.38,0.02-0.67,0.06-0.86c0.11-1.86,0.28-3.8,0.49-5.79c0.21-2,0.38-3.54,0.51-4.62
		c0.13-1.08,0.23-2.11,0.29-3.08c0.06-0.97,0.01-1.65-0.14-2.03c-0.15-0.38-0.42-0.57-0.8-0.57c-0.71,0-1.4-0.06-2.08-0.18
		C119.97,154.51,119.88,155.46,119.76,156.46z"/>
	<path class="st1" d="M80.54,244.58c0.78,1.4,1.89,2.54,3.3,3.45c-0.1-0.15-0.21-0.3-0.3-0.45c-0.89-1.6-1.56-3.26-2-5
		c-0.44-1.73-0.66-3.53-0.66-5.4v-1.37v-13.3v-39.16v-0.06v-13.64c0-1.45,0.11-2.85,0.34-4.22c0.23-1.37,0.64-2.75,1.23-4.14
		c0.59-1.39,1.33-2.61,2.23-3.65c0.89-1.05,2.05-1.91,3.45-2.6c1.41-0.69,3.01-1.06,4.8-1.14h1.08c2.33,0.07,4.31,0.67,5.98,1.76
		c-2.06-3.04-5.05-4.64-8.98-4.76h-1.08c-1.79,0.08-3.39,0.46-4.8,1.14c-1.41,0.69-2.56,1.55-3.45,2.6
		c-0.89,1.05-1.64,2.26-2.23,3.65c-0.59,1.39-1,2.77-1.23,4.14c-0.23,1.37-0.34,2.78-0.34,4.22v13.64v0.06v39.16v13.3v1.37
		c0,1.87,0.22,3.66,0.66,5.4C78.98,241.32,79.64,242.98,80.54,244.58z"/>
</g>
<g>
	<g>
		<path class="st0" d="M290.17,97.36c-12.5-2.97-22.91,8.12-27.94,15.46c-3.68,5.36-9.68,7.29-12.15,5.55
			c-2.83-1.99-3.12-5.79-2.48-7.89c0.81-2.69,6.26-3.21,5.02-0.04c-0.04-0.02-0.08-0.06-0.13-0.04c-1.78,0.84-1.49,3.19-0.1,4.09
			c2.09,1.37,5.02,0.3,5.34-2.42c0.6-5.1-7.27-7.86-11.63-2.72c-7.54,8.9,3.15,18.85,11.45,13c-11.45,14.76-19.51,10.05-19.34,7.55
			c0.14-1.96,1.41-3.3,2.7-4.63c1.63-1.68,1.24-5.28-0.36-6.6c-2.41-1.99-5.17-1.41-7.67,1.44c-2.85,3.23-1.83,8.41,0.75,11.44
			c2.81,3.28,6.72,5.28,12.99,3.87c6.11-1.37,10.17-8.94,13.3-13.87c0.7-1.1,1.41-2.24,2.13-3.39c-1.38,7.6,0.75,18.31,9.09,17.6
			c4.1-0.36,7.7-5.46,4.47-8.98c-1.07-1.17-2.72-1.8-4.24-1.09c-1.24,0.58-1.9,1.95-1.59,3.15c0.25,0.94,0.81,1.24,1.58,1.24
			c0.81,0,1.35-0.55,1.35-1.36c0-0.81-0.66-1.47-1.47-1.47c-0.29,0-0.55,0.09-0.78,0.23c0.24-0.42,0.62-0.79,0.99-0.93
			c1.19-0.48,2.27,0.23,2.86,1.23c2.38,4.12-3.37,6.69-6.56,5.06c-3.37-1.7-4.42-6.28-4.7-9.7c-0.12-1.47-0.22-3.98,0.16-6.81
			c1.14-1.78,2.34-3.58,3.61-5.31c-1.45,3.65-1.42,7.57,2.23,9.28c2.65,1.25,6.7-0.61,5.97-3.93c-0.24-1.1-1.03-2.09-2.22-2.19
			c-0.97-0.08-1.87,0.53-2.11,1.38c-0.18,0.67,0.05,1.06,0.53,1.33c0.5,0.3,1.02,0.15,1.32-0.35c0.29-0.5,0.12-1.14-0.38-1.43
			c-0.18-0.1-0.37-0.15-0.56-0.14c0.3-0.17,0.66-0.26,0.94-0.22c0.9,0.13,1.32,0.95,1.32,1.77c-0.01,3.4-4.47,2.92-5.85,0.78
			c-1.47-2.26-0.48-5.46,0.57-7.66c0.28-0.6,0.73-1.45,1.32-2.4c1.79-1.99,3.74-3.76,5.9-5.13c0.02,0,0.03-0.01,0.03-0.01
			c8.21-4.17,13,0.75,13.81,2.66c0.59,1.39,0.86,4.38-1.41,4.49c-0.47,0.03-0.54,0.66-0.19,0.81c3.65,2.86,8.26-0.6,8.31-2.85
			c6.03,6.65-2.59,7.93-2.77,8.44c-0.84,2.3,1.68,7.54,5.69,5.3c-0.72,3.75-3.17,6.58-6.74,7.8c-5.24,1.78-13.83-2.52-11.73-9.26
			c1.47-4.7,4.22-1.52,6.91-0.91c3.74,0.86,5.12-2.37,2.72-4.32c-4.72-3.84-17.39,2.47-8.91,13.55c3.77,4.92,12.51,4.34,17.11,0.22
			C308.57,119.11,302.61,100.32,290.17,97.36z"/>
		<path class="st0" d="M275.44,93.32c-1.66-3.47-7.6-0.92-8.45,2.51c1.67-2.12,6.97-0.98,5.65,1.77
			c-7.72-1.97-11.09,7.07-11.66,13.47c-2.76-17.58,8.65-23.92,12.63-22.09c1.68,0.78,3.55,2.19,2.73,4.01
			C276.03,93.85,275.43,93.33,275.44,93.32z"/>
		<path class="st0" d="M252.33,90.89c2.1-1.75,5.18,1.66,4.71,4.13c-0.45-1.87-4.21-2.7-4.18-0.54c5.57,1.02,5.06,7.86,3.53,12.16
			c7.01-10.53,1.52-18.03-1.6-18.03c-1.32,0-2.94,0.36-2.96,1.78C251.79,91.05,252.33,90.9,252.33,90.89z"/>
	</g>
	<g>
		<path class="st0" d="M109.83,97.36c12.5-2.97,22.91,8.12,27.94,15.46c3.68,5.36,9.68,7.29,12.15,5.55
			c2.83-1.99,3.12-5.79,2.48-7.89c-0.81-2.69-6.26-3.21-5.02-0.04c0.04-0.02,0.08-0.06,0.13-0.04c1.78,0.84,1.49,3.19,0.1,4.09
			c-2.09,1.37-5.02,0.3-5.34-2.42c-0.6-5.1,7.27-7.86,11.63-2.72c7.54,8.9-3.15,18.85-11.45,13c11.45,14.76,19.51,10.05,19.34,7.55
			c-0.14-1.96-1.41-3.3-2.7-4.63c-1.63-1.68-1.24-5.28,0.36-6.6c2.41-1.99,5.17-1.41,7.67,1.44c2.85,3.23,1.83,8.41-0.75,11.44
			c-2.81,3.28-6.72,5.28-12.99,3.87c-6.11-1.37-10.17-8.94-13.3-13.87c-0.7-1.1-1.41-2.24-2.13-3.39c1.38,7.6-0.75,18.31-9.09,17.6
			c-4.1-0.36-7.7-5.46-4.47-8.98c1.07-1.17,2.72-1.8,4.24-1.09c1.24,0.58,1.9,1.95,1.59,3.15c-0.25,0.94-0.81,1.24-1.58,1.24
			c-0.81,0-1.35-0.55-1.35-1.36c0-0.81,0.66-1.47,1.47-1.47c0.29,0,0.55,0.09,0.78,0.23c-0.24-0.42-0.62-0.79-0.99-0.93
			c-1.19-0.48-2.27,0.23-2.86,1.23c-2.38,4.12,3.37,6.69,6.56,5.06c3.37-1.7,4.42-6.28,4.7-9.7c0.12-1.47,0.22-3.98-0.16-6.81
			c-1.14-1.78-2.34-3.58-3.61-5.31c1.45,3.65,1.42,7.57-2.23,9.28c-2.65,1.25-6.7-0.61-5.97-3.93c0.24-1.1,1.03-2.09,2.22-2.19
			c0.97-0.08,1.87,0.53,2.11,1.38c0.18,0.67-0.05,1.06-0.53,1.33c-0.5,0.3-1.02,0.15-1.32-0.35c-0.29-0.5-0.12-1.14,0.38-1.43
			c0.18-0.1,0.37-0.15,0.56-0.14c-0.3-0.17-0.66-0.26-0.94-0.22c-0.9,0.13-1.32,0.95-1.32,1.77c0.01,3.4,4.47,2.92,5.85,0.78
			c1.47-2.26,0.48-5.46-0.57-7.66c-0.28-0.6-0.73-1.45-1.32-2.4c-1.79-1.99-3.74-3.76-5.9-5.13c-0.02,0-0.03-0.01-0.03-0.01
			c-8.21-4.17-13,0.75-13.81,2.66c-0.59,1.39-0.86,4.38,1.41,4.49c0.47,0.03,0.54,0.66,0.19,0.81c-3.65,2.86-8.26-0.6-8.31-2.85
			c-6.03,6.65,2.59,7.93,2.77,8.44c0.84,2.3-1.68,7.54-5.69,5.3c0.72,3.75,3.17,6.58,6.74,7.8c5.24,1.78,13.83-2.52,11.73-9.26
			c-1.47-4.7-4.22-1.52-6.91-0.91c-3.74,0.86-5.12-2.37-2.72-4.32c4.72-3.84,17.39,2.47,8.91,13.55
			c-3.77,4.92-12.51,4.34-17.11,0.22C91.43,119.11,97.39,100.32,109.83,97.36z"/>
		<path class="st0" d="M124.56,93.32c1.66-3.47,7.6-0.92,8.45,2.51c-1.67-2.12-6.97-0.98-5.65,1.77
			c7.72-1.97,11.09,7.07,11.66,13.47c2.76-17.58-8.65-23.92-12.63-22.09c-1.68,0.78-3.55,2.19-2.73,4.01
			C123.97,93.85,124.57,93.33,124.56,93.32z"/>
		<path class="st0" d="M147.67,90.89c-2.1-1.75-5.18,1.66-4.71,4.13c0.45-1.87,4.21-2.7,4.18-0.54c-5.57,1.02-5.06,7.86-3.53,12.16
			c-7.01-10.53-1.52-18.03,1.6-18.03c1.32,0,2.94,0.36,2.96,1.78C148.21,91.05,147.67,90.9,147.67,90.89z"/>
	</g>
</g>
</svg>
